<?xml version="1.0" encoding="UTF-8" standalone="no"?>
<!-- Created with Inkscape (http://www.inkscape.org/) -->

<svg
   version="1.1"
   id="svg1"
   width="390"
   height="844"
   viewBox="0 0 390 844"
   xmlns="http://www.w3.org/2000/svg"
   xmlns:svg="http://www.w3.org/2000/svg">
  <defs
     id="defs1" />
  <g
     id="g1">
    <path
       style="fill:#000000"
       d="m 71,843.38776 c 0,-0.40165 0.642436,-1.44071 1.427636,-2.30902 2.681595,-2.96542 7.43914,-13.69326 9.153696,-20.64077 C 82.523044,816.62209 83.624944,808.1 84.029997,801.5 l 0.736462,-12 -0.286714,13 -0.286713,13 -2.16072,7.5 c -1.188397,4.125 -3.717789,10.29272 -5.620871,13.70603 C 73.220556,842.42912 71,845.17093 71,843.38776 Z m 99,0.16277 c 0,-0.24721 2.87241,-2.49918 6.38312,-5.00438 7.50662,-5.35661 10.93924,-9.37901 20.0937,-23.54615 3.73167,-5.775 8.92098,-13.425 11.5318,-17 6.87491,-9.41381 8.89038,-13.95779 12.64113,-28.5 1.84414,-7.15 5.41403,-19.00697 7.93309,-26.34882 l 4.58011,-13.34882 -2.33147,-2.65118 L 228.5,724.5 l 2.68367,2.362 2.68368,2.36201 0.51462,-3.36201 c 0.28305,-1.8491 0.77243,-7.06253 1.08751,-11.58541 0.31509,-4.52287 0.86482,-8.98419 1.22164,-9.91404 l 0.64876,-1.69064 -1.24679,0.77056 -1.24678,0.77055 -4.43457,-1.69358 c -2.43901,-0.93146 -4.87943,-2.52481 -5.42315,-3.54076 -1.57601,-2.94481 -1.15071,-10.19436 0.95755,-16.32213 L 227.89228,677 h -0.98345 c -1.91178,0 -9.54955,8.84875 -12.63282,14.63578 C 209.92068,699.81037 206,712.00043 206,717.3673 c 0,2.48307 -0.38728,4.75402 -0.86061,5.04655 -0.47334,0.29254 -1.65109,3.3566 -2.61723,6.80902 -0.96613,3.45242 -3.05386,8.8518 -4.63939,11.99861 C 196.29725,744.3683 195,747.5675 195,748.33082 c 0,0.76332 -2.08076,3.13865 -4.6239,5.27852 -2.54315,2.13986 -5.22553,5.24066 -5.96086,6.89066 l -1.33696,3 -0.0391,-1.58897 c -0.0513,-2.08261 4.97711,-8.68442 7.19145,-9.44167 l 1.73059,-0.59181 4.06363,-8.67156 c 2.23499,-4.76935 4.55945,-10.7043 5.16546,-13.18877 0.606,-2.48447 1.71111,-5.73237 2.45578,-7.21756 0.74467,-1.48519 1.35395,-4.44101 1.35395,-6.5685 0,-11.98538 11.5086,-34.0586 20.534,-39.38372 l 3.34692,-1.97474 3.05246,-5.40866 c 1.67886,-2.97476 4.20764,-6.16556 5.61952,-7.09066 l 2.56705,-1.682 1.60354,1.60354 1.60354,1.60354 0.44089,5.31654 0.44089,5.31653 -1.62292,8.661 c -0.89261,4.76355 -2.30317,10.58901 -3.13458,12.94548 -0.83141,2.35646 -2.00523,10.15191 -2.6085,17.32323 l -1.09685,13.03876 -5.31112,15.03627 c -2.92112,8.26995 -6.90392,21.25035 -8.85065,28.84534 -3.98778,15.5579 -3.72276,15.03773 -19.99792,39.25072 C 188.29641,829.404 185.12756,833.24598 176.86744,839.602 171.472,843.7537 170,844.60004 170,843.55053 Z M 234.96752,699.93931 233.92963,698 l -3.21481,-0.14983 -3.21482,-0.14983 2.83843,-0.42513 2.83844,-0.42512 1.79935,1.62839 1.79936,1.6284 1.67338,-4.80344 c 0.92036,-2.64189 2.2439,-7.99668 2.94121,-11.89953 l 1.26784,-7.0961 -0.79678,-2.1539 L 241.06445,672 h -2.18706 -2.18706 l -3.97314,4.17664 c -4.96425,5.21851 -7.66677,11.05366 -7.69523,16.61517 l -0.022,4.29182 1.87334,2.01079 c 1.89003,2.02871 6.98747,3.97714 8.37936,3.2029 0.41399,-0.23029 0.28566,-1.29139 -0.28518,-2.35801 z m -2.82555,-24.44822 c 1.69447,-1.9299 4.16157,-3.78015 5.48243,-4.11167 l 2.40157,-0.60275 1.64884,1.36166 1.64884,1.36167 -0.58512,-4.38758 c -0.32182,-2.41317 -1.22474,-5.0272 -2.00648,-5.80894 l -1.42136,-1.42136 -3.15721,3.59585 C 233.07997,668.97851 227.41795,679 228.51371,679 c 0.30106,0 1.93378,-1.57901 3.62826,-3.50891 z M 82.596898,772.25 C 82.241931,763.5875 81.759022,752.675 81.523767,748 l -0.427737,-8.5 0.826956,4.5 c 0.949089,5.1646 2.544353,44 1.807414,44 -0.268459,0 -0.778535,-7.0875 -1.133502,-15.75 z m 99.797142,-1.66553 c -0.29875,-0.77854 -0.38136,-2.69104 -0.18357,-4.25 l 0.35961,-2.83447 0.49139,4.25 c 0.50555,4.37252 0.28393,5.31368 -0.66743,2.83447 z M 186.16997,765 c 0.0162,-0.825 0.38968,-2.625 0.83003,-4 l 0.80064,-2.5 0.0294,2 c 0.0162,1.1 -0.35734,2.9 -0.83003,4 l -0.85943,2 z M 64,761 c 0,-0.73333 0.3,-1.03333 0.666667,-0.66667 0.366666,0.36667 0.366666,0.96667 0,1.33334 C 64.3,762.03333 64,761.73333 64,761 Z m -2.008954,-3.45078 C 61.170971,756.72175 58.3625,754.0868 55.75,751.69378 53.1375,749.30076 51,746.71124 51,745.93928 c 0,-0.77195 1.137905,0.27103 2.528678,2.31774 C 55.937132,751.80137 62,756.03289 62,754.16948 62,752.2106 54.857272,744.10446 52.027481,742.85187 50.362366,742.11482 49,741.11987 49,740.64088 c 0,-0.479 1.125,-0.14415 2.5,0.74411 1.375,0.88826 3.613555,2.33427 4.974567,3.21336 2.567862,1.6586 7.988297,11.51306 7.363597,13.38716 l -0.356072,1.06821 z M 184.75,746.3316 182,741.8764 l 0.12517,-3.6882 0.12516,-3.6882 0.66576,4.05201 c 0.36616,2.2286 1.69515,5.49766 2.95331,7.26457 1.25815,1.76692 2.13974,3.60804 1.95907,4.0914 -0.18066,0.48335 -1.56597,-1.12602 -3.07847,-3.57638 z M 80.415084,721 c 0,-10.175 0.148493,-14.3375 0.329984,-9.25 0.181491,5.0875 0.181491,13.4125 0,18.5 -0.181491,5.0875 -0.329984,0.925 -0.329984,-9.25 z m 101.589836,8.91667 c 0.003,-0.77917 1.06105,-7.71667 2.35189,-15.41667 l 2.34698,-14 5.7868,-13.5 c 3.18274,-7.425 6.80497,-16.425 8.04939,-20 1.9863,-5.70622 15.35703,-32.18053 24.24219,-48 1.69902,-3.025 4.45882,-9.55 6.13289,-14.5 1.67407,-4.95 3.05303,-8.04108 3.06435,-6.86906 0.0295,3.05316 -4.52985,14.77295 -8.70222,22.36906 -8.61736,15.68853 -21.68773,42.07249 -23.98618,48.4187 -1.37819,3.80529 -4.86828,12.35529 -7.75575,19 -5.73324,13.19344 -6.76535,16.91051 -9.02317,32.4963 -1.34238,9.26648 -2.52094,13.968 -2.50717,10.00167 z M 61.872445,728.25 60.5,726.5 l 1.75,1.37244 C 63.915748,729.17881 64.445479,730 63.622445,730 c -0.207656,0 -0.995156,-0.7875 -1.75,-1.75 z m -2.5943,-3.5 C 57.778962,722.81156 56.835903,721 57.325973,721 c 0.244204,0 1.181135,1.125 2.08207,2.5 1.685833,2.57291 1.591948,3.47635 -0.129898,1.25 z m 162.455185,-0.87409 c 0.67834,-0.68342 1.48524,-0.99067 1.79313,-0.68278 0.30789,0.30789 -0.24711,0.86705 -1.23333,1.24258 L 220.5,725.11849 Z m 4.6,0.45742 c 0.36667,-0.36666 0.96667,-0.36666 1.33334,0 C 228.03333,724.7 227.73333,725 227,725 c -0.73333,0 -1.03333,-0.3 -0.66667,-0.66667 z M 54.591957,717.5 52.953894,715 H 50.41793 47.881966 l 0.628911,-1.0176 0.628911,-1.0176 -4.319894,-1.96044 c -2.375942,-1.07824 -3.59519,-1.97032 -2.709441,-1.9824 0.885749,-0.0121 3.268233,1.10304 5.294409,2.47804 4.630057,3.14204 4.950044,3.12301 4.202411,-0.25 L 50.99773,708.5 53,712 l 2.00227,3.5 -0.641811,-3 -0.641812,-3 0.844271,0.78693 0.84427,0.78693 1.740534,-4.28693 C 58.93009,702.39696 59.642564,693 58.193042,693 c -0.443827,0 -1.326876,1.2375 -1.96233,2.75 L 55.07534,698.5 55.6712,696 c 0.327724,-1.375 1.048918,-3.625 1.602655,-5 l 1.006793,-2.5 0.759996,2.5 c 0.417998,1.375 0.804852,4.39584 0.859676,6.71298 L 60,701.92596 l -2.081731,5.28139 -2.081731,5.2814 0.358157,3.75562 c 0.196986,2.0656 0.28552,3.75563 0.196741,3.75563 -0.08878,0 -0.898544,-1.125 -1.799479,-2.5 z M 42.75,715.33772 c 0.6875,-0.27741 1.8125,-0.27741 2.5,0 0.6875,0.27741 0.125,0.50439 -1.25,0.50439 -1.375,0 -1.9375,-0.22698 -1.25,-0.50439 z M 35.872445,712.25 34.5,710.5 l 1.75,1.37244 C 37.915748,713.17881 38.445479,714 37.622445,714 c -0.207656,0 -0.995156,-0.7875 -1.75,-1.75 z M 30.5,708.93217 l -3,-1.92164 2.009453,-0.005 c 1.105199,-0.003 2.571513,0.89474 3.258474,1.99474 1.479273,2.36869 1.538679,2.37047 -2.267927,-0.0678 z m 61.165811,1.33414 C 91.405999,709.84484 91.806415,708.15 92.555624,706.5 l 1.362199,-3 -0.472184,3 -0.472185,3 1.93911,-4 c 2.252844,-4.64717 2.741778,-4.00182 0.68947,0.91004 -1.46762,3.51251 -3.138846,5.14979 -3.936223,3.85627 z m -55.396779,-1.9593 c 0.972967,-0.25354 2.322967,-0.23687 3,0.0371 0.677032,0.27393 -0.119032,0.48137 -1.769032,0.46099 l -3,-0.0371 z M 50,707.34667 C 50,706.804 48.336267,704.3665 46.302816,701.93 l -3.697184,-4.43 2.697184,2.42431 2.697184,2.42432 0.08942,-2.42432 0.08942,-2.42431 1.361907,4.96534 c 0.749048,2.73094 1.158811,5.16844 0.910582,5.41667 C 50.203096,708.13024 50,707.88933 50,707.34667 Z M 53.157895,706 c 0,-1.375 0.226973,-1.9375 0.504386,-1.25 0.277412,0.6875 0.277412,1.8125 0,2.5 -0.277413,0.6875 -0.504386,0.125 -0.504386,-1.25 z m 1,-5 c 0,-1.375 0.226973,-1.9375 0.504386,-1.25 0.277412,0.6875 0.277412,1.8125 0,2.5 -0.277413,0.6875 -0.504386,0.125 -0.504386,-1.25 z m 40.216516,1 c 0.281903,-0.825 1.76526,-4.425 3.296347,-8 l 2.783792,-6.5 -0.0437,-8 -0.0437,-8 0.68475,3.5 c 0.37661,1.925 0.74399,3.25548 0.81639,2.95663 0.0724,-0.29886 1.06374,-7.26845 2.20296,-15.48799 1.13923,-8.21954 2.26423,-15.13752 2.5,-15.3733 1.93318,-1.93317 -5.7162,45.08419 -8.444505,51.90466 l -1.000042,2.5 -0.09882,-1.5 -0.09882,-1.5 -1.533634,2.5 c -0.843499,1.375 -1.302987,1.825 -1.021084,1 z M 78.352649,690.31402 C 77.150842,673.66219 77.477905,659.73807 79.276092,651 c 0.848875,-4.125 1.584021,-6.24353 1.633658,-4.70784 0.04964,1.53569 -0.640537,6.26069 -1.533721,10.5 l -1.623972,7.70784 1.271092,18.26955 c 0.699101,10.04825 1.02608,18.51455 0.726621,18.81401 -0.29946,0.29946 -0.928164,-4.77183 -1.397121,-11.26954 z m 68.305341,10.01064 c -0.36189,-0.3619 -0.62636,-1.37049 -0.5877,-2.24133 l 0.0703,-1.58333 0.76805,1.96452 0.76805,1.96451 3.16166,-4.36455 c 4.25335,-5.87158 3.99098,-7.21737 -0.58833,-3.01772 l -3.75,3.43909 4.95625,-5.23667 4.95625,-5.23668 -1.20625,-1.20625 c -1.96845,-1.96845 -1.42183,-5.22049 2.69897,-16.057 2.14787,-5.64827 5.52622,-16.25248 7.50745,-23.56491 l 3.60224,-13.29531 6.34306,-12.19452 c 3.48868,-6.70698 7.54778,-15.22741 9.02023,-18.93428 1.47245,-3.70688 3.60347,-8.30972 4.7356,-10.22854 1.13214,-1.91882 3.59468,-8.05949 5.47231,-13.64592 L 198,566.72861 l -0.0153,-5.11431 c -0.008,-2.81286 -0.40951,-5.73671 -0.8913,-6.49744 l -0.87599,-1.38314 -0.67544,3.07523 c -0.37149,1.69137 -2.0233,4.9359 -3.6707,7.21007 l -2.99526,4.13485 -3.38211,1.41313 c -3.8996,1.62936 -6.34354,1.01367 -7.40899,-1.86652 l -0.74773,-2.02132 -6.34191,11.91042 c -7.2798,13.6718 -14.79286,26.24666 -22.00176,36.82506 -7.03319,10.32056 -9.85135,17.04456 -17.40727,41.53307 -7.22775,23.42493 -9.52108,29.02458 -14.96866,36.54909 -4.40657,6.08661 -4.84465,5.14705 -0.52649,-1.12918 5.07125,-7.37081 8.39333,-15.80412 14.32604,-36.36762 l 5.62589,-19.5 4.52271,-9.43057 c 2.48748,-5.18682 5.51531,-10.43356 6.72849,-11.65944 4.58368,-4.63161 30.10005,-48.59246 32.1874,-55.45401 1.46423,-4.81324 7.67308,-15.73403 11.0273,-19.39598 l 3.40954,-3.72235 1.79078,0.33972 1.79077,0.33973 0.17934,2.99145 0.17934,2.99145 -0.52641,-2 c -0.28952,-1.1 -0.92975,-2.42453 -1.42274,-2.94341 l -0.89634,-0.9434 -3.0066,2.88049 C 190.35297,541.07796 189,542.81499 189,543.35376 c 0,0.53876 0.30098,0.67859 0.66885,0.31072 0.36787,-0.36786 1.49287,0.0769 2.5,0.98833 l 1.83115,1.65717 0.0304,5.09501 0.0304,5.09501 0.96346,-1.65026 c 0.5299,-0.90764 1.37966,-4.05764 1.88835,-7 l 0.92489,-5.34974 0.0498,5.5 c 0.0274,3.025 0.34106,8.28523 0.69704,11.6894 l 0.64724,6.1894 -2.1799,7.3106 C 194.754,580.89511 189.92675,591.87555 176.91233,619 l -7.91676,16.5 -2.97288,11.17509 c -1.63509,6.14631 -4.80761,15.99988 -7.05004,21.89684 -3.9589,10.41077 -4.67651,15.37911 -2.33232,16.14773 l 1.14033,0.37389 6.21762,-12.79677 c 9.04735,-18.62078 16.21914,-31.08093 22.69815,-39.43537 3.13989,-4.04878 10.06911,-14.16902 15.39826,-22.48944 13.91093,-21.71916 20.24611,-30.50963 25.43487,-35.29245 l 4.56344,-4.20643 2.2035,0.31345 2.2035,0.31346 0.32046,3.34526 c 0.17626,1.8399 -0.38624,5.1115 -1.25,7.27024 -0.86375,2.15873 -1.57735,5.15337 -1.58577,6.65474 L 233.96937,591.5 233,590 l -0.96937,-1.5 -0.0153,1.74712 c -0.0213,2.42666 -6.40542,9.25761 -10.07117,10.77602 l -3.03426,1.25683 -2.45494,-1.11855 L 214,600.04288 v -2.58046 -2.58045 l -0.90881,0.56167 c -0.49984,0.30892 -4.7396,6.74798 -9.42168,14.30902 -4.68208,7.56104 -11.71466,18.00993 -15.62796,23.21976 -3.9133,5.20983 -7.39422,10.58453 -7.73537,11.9438 l -0.62028,2.47138 1.61054,2.8062 c 2.19051,3.81675 1.14317,3.57741 -1.19901,-0.27399 l -1.87318,-3.0802 -10.07883,19.87364 c -12.8923,25.42131 -19.4382,35.66064 -21.48743,33.61141 z m 70.76698,-101.17977 -1.92497,-1.85511 -0.37188,0.97076 c -0.38413,1.00271 1.66655,2.69716 3.29685,2.72415 0.50873,0.008 0.0587,-0.81949 -1,-1.8398 z m 7.48984,-1.60084 c 4.39375,-2.27209 8.28594,-13.18548 6.59858,-18.50188 L 230.86522,577 h -1.81625 c -2.34887,0 -8.51082,6.83882 -11.25938,12.4962 l -2.14813,4.42148 1.15783,2.54116 1.15783,2.54116 h 2.0711 c 1.13911,0 3.33807,-0.65518 4.88659,-1.45595 z M 235.75963,576.25 236.2601,572 l -1.88005,0.0222 C 233.34602,572.03447 231.375,572.92446 230,574 l -2.5,1.95553 1.71482,0.0222 c 0.94315,0.0122 2.22951,0.98396 2.85858,2.15939 l 1.14377,2.13716 -0.514,3.61284 -0.51401,3.61285 1.535,-3.5 c 0.84424,-1.925 1.76021,-5.4125 2.03547,-7.75 z m -48.72366,-8.75 c 0.84479,-0.55 2.53229,-2.29819 3.75,-3.88486 L 193,560.73028 v -6.28335 c 0,-3.45585 -0.27314,-6.99516 -0.60699,-7.86514 -0.82158,-2.14101 -3.70832,-1.99585 -5.77746,0.29052 -2.56205,2.83104 -7.55782,15.20401 -7.5885,18.79436 l -0.0271,3.16666 1.25,0.42345 c 1.44938,0.49099 4.5772,-0.31875 6.78597,-1.75678 z m -155.446691,129.64446 -0.528754,-0.85555 2.719737,0.41638 2.719738,0.41637 -2,-1.22537 c -1.1,-0.67395 -2.330609,-1.71382 -2.734687,-2.31083 C 30.764105,692.10623 30.807519,689 31.829401,689 c 0.456171,0 0.793671,0.98984 0.75,2.19966 l -0.0794,2.19965 2.466511,1.2505 c 1.356581,0.68778 2.62526,1.09175 2.819288,0.89772 0.437169,-0.43716 -1.981961,-4.82495 -3.119645,-5.65837 -0.458615,-0.33596 -0.04587,-0.91321 0.917218,-1.28278 l 1.751063,-0.67195 1.082782,1.17949 L 39.5,690.29341 38.25,689.58769 37,688.88197 v 1.05901 C 37,690.52344 37.675,691 38.5,691 H 40 v 2.3 c 0,1.265 0.5625,2.9308 1.25,3.70177 l 1.25,1.40177 -1.533538,-1.14457 -1.533539,-1.14457 -1.466461,0.92749 c -1.849517,1.16975 -5.679554,1.23135 -6.377183,0.10257 z M 46.605231,693.75 c -1.009965,-5.27913 -1.02121,-5.98642 -0.189512,-11.92007 l 0.794754,-5.67007 -2.903409,-2.82993 c -1.596875,-1.55646 -1.881436,-1.97545 -0.632357,-0.93109 l 2.271053,1.89883 -0.893733,-3.11626 C 43.501852,665.77626 41.596705,664.2778 40.689326,667.75 l -0.457323,1.75 -0.116002,-1.69098 c -0.305118,-4.4478 4.220935,-2.98393 6.459145,2.08909 l 1.635685,3.70736 3.042491,-2.84211 3.042491,-2.84211 -1.256648,-2.34807 -1.256647,-2.34807 -2.641259,0.12502 c -1.452693,0.0688 -3.013018,0.58061 -3.46739,1.13744 l -0.826131,1.01243 0.409464,-1.5 0.409465,-1.5 h 3.229682 3.229682 l 1.686984,2.98714 C 54.740857,667.13007 56.175,669.02019 57,669.6874 l 1.5,1.21313 -2.133029,-0.53631 -2.13303,-0.53631 -1.575268,2.24901 c -0.866397,1.23696 -1.342476,2.62568 -1.057953,3.08605 C 51.885242,675.62334 51.24945,676 50.187848,676 h -1.930187 l -0.649642,4.89725 c -0.357304,2.69348 -0.353321,7.41848 0.0089,10.5 0.709936,6.04044 0.0067,7.67585 -1.011638,2.35275 z m -5.364305,-7 c -2.049454,-2.18782 -4.643959,-7.6803 -3.953927,-8.37033 0.188625,-0.18863 2.113715,1.55842 4.277978,3.88233 L 45.5,686.48728 42.25,683.55655 c -3.882591,-3.50118 -4.310281,-1.97007 -0.661106,2.36672 2.998631,3.56368 2.755964,4.14022 -0.347968,0.82673 z M 53.083333,674.71703 C 53.3125,674.5614 54.4,673.7739 55.5,672.96703 l 2,-1.46703 -1.372445,1.75 c -0.754844,0.9625 -1.842344,1.75 -2.416666,1.75 -0.574322,0 -0.856722,-0.12734 -0.627556,-0.28297 z M 99.186133,656 c -0.09406,-7.975 0.317623,-17.425 0.914857,-21 0.59724,-3.575 1.15471,-10.55 1.23883,-15.5 l 0.15294,-9 -1.996378,-3.94554 c -1.09801,-2.17005 -2.50521,-4.10216 -3.127112,-4.29358 l -1.130729,-0.34803 -0.418341,6.56992 -0.418341,6.56992 -2.575805,2.5758 -2.575805,2.57581 -1.990017,-1.06503 -1.990016,-1.06502 -1.223774,7.21287 C 83.373366,629.25421 82.468707,634.975 82.03609,638 l -0.786578,5.5 -0.124756,-4.25189 c -0.06862,-2.33853 0.760718,-8.86353 1.842965,-14.5 C 84.049967,619.11165 85.379548,611.8 85.922345,608.5 l 0.986903,-6 -0.455452,5.68272 c -0.250499,3.1255 -0.01949,6.8294 0.513363,8.2309 l 0.968815,2.54818 1.568998,-0.60208 c 4.105489,-1.57543 5.715405,-10.50318 3.046055,-16.89184 -1.673135,-4.00437 -3.231095,-4.42417 -4.519865,-1.21788 l -0.904389,2.25 -0.04143,-2 C 87.030151,597.83505 90.634705,590 91.915924,590 93.42195,590 95,593.4688 95,596.77927 v 2.91075 l 2.102379,1.90263 c 3.044251,2.75501 4.700081,6.42034 5.421511,12.00097 l 0.63427,4.90638 -1.212,8.5 c -0.6666,4.675 -1.52182,16.375 -1.9005,26 l -0.688502,17.5 z M 93.55903,593.37917 c -0.787355,-3.13707 -2.179351,-3.01821 -3.278747,0.27998 l -0.886384,2.65915 2.05305,2.09085 L 93.5,600.5 l 0.328082,-2.37083 c 0.180445,-1.30396 0.05937,-3.44146 -0.269052,-4.75 z m 171.28664,70.40572 -0.55499,-2.71512 1.09573,-0.36524 1.09573,-0.36524 -1.74107,-1.74108 C 263.78348,657.64062 263,655.98929 263,654.92857 c 0,-2.08523 1.47524,-2.58666 2.54026,-0.86343 l 0.65829,1.06515 2.15073,-1.78861 c 1.18289,-0.98374 1.58822,-1.14805 0.90072,-0.36515 -0.6875,0.78291 -1.21447,2.34597 -1.17105,3.47347 l 0.0789,2.05 0.50439,-1.25 c 0.58559,-1.45125 4.94688,-1.6914 5.79501,-0.3191 0.31644,0.512 0.0485,1.25653 -0.59549,1.65451 l -1.17082,0.72361 0.71353,-1.15451 L 274.11803,657 h -1.39235 c -2.41252,0 -2.62607,1.09961 -0.60587,3.11981 2.15647,2.15647 1.62181,4.18238 -0.96305,3.64916 -0.91122,-0.18797 -2.17673,0.34105 -2.81224,1.17561 l -1.15549,1.51739 0.53081,-2.98099 0.53082,-2.98098 -1.02827,1 c -0.56554,0.55 -1.20679,1.9 -1.425,3 l -0.39674,2 z M 272,661.5 c -0.68469,-0.825 -1.62567,-1.5 -2.09106,-1.5 -0.46539,0 -0.58715,0.675 -0.27057,1.5 0.31659,0.825 1.25756,1.5 2.09106,1.5 h 1.51546 z m -6.04584,-5.58565 c -0.61391,-1.1471 -1.36033,-1.84151 -1.65872,-1.54312 -0.82426,0.82426 0.49605,3.62877 1.70836,3.62877 h 1.06657 z M 261,661.05902 c 0,-0.51754 0.44485,-1.21592 0.98855,-1.55194 l 0.98854,-0.61096 -0.59553,1.55194 C 261.71677,662.18048 261,662.49745 261,661.05902 Z m -76.49292,-7.04757 -0.61096,-0.98854 1.55194,0.59553 c 1.73242,0.66479 2.04939,1.38156 0.61096,1.38156 -0.51754,0 -1.21592,-0.44485 -1.55194,-0.98855 z m 7.82625,-3.67812 c 0.36667,-0.36666 0.96667,-0.36666 1.33334,0 C 194.03333,650.7 193.73333,651 193,651 c -0.73333,0 -1.03333,-0.3 -0.66667,-0.66667 z m 0.23096,-3.0402 -0.68278,-1.79313 1.24258,1.23333 c 0.68342,0.67834 0.99067,1.48524 0.68278,1.79313 -0.30789,0.30789 -0.86705,-0.24711 -1.24258,-1.23333 z m -83.87794,-0.73171 -1.81364,-1.37498 1.11042,-4.34322 c 0.61073,-2.38877 5.31921,-13.11822 10.46329,-23.84322 5.14408,-10.725 11.61734,-24.225 14.38503,-30 2.76768,-5.775 5.91072,-12.075 6.98453,-14 1.07381,-1.925 3.42214,-6.53811 5.21851,-10.25136 1.79637,-3.71325 4.81873,-8.35004 6.71636,-10.30397 l 3.45024,-3.55259 1.64945,0.31356 1.64946,0.31355 0.80185,8.49041 c 0.44102,4.66972 0.89102,10.9654 1,13.9904 l 0.19815,5.5 -3.88673,10.27994 c -2.1377,5.65396 -4.02174,10.14493 -4.18675,9.97992 -0.16501,-0.16502 1.46873,-5.46599 3.63054,-11.77994 3.9067,-11.41024 4.76229,-17.13589 2.98142,-19.95189 l -0.93089,-1.47198 -0.66156,1.97198 c -3.09711,9.23187 -6.87094,14.21161 -11.99849,15.83253 l -2.05245,0.64882 -1.94755,-1.45495 -1.94754,-1.45496 2.5,0.57524 2.5,0.57524 -1.98897,-1.5363 c -1.09394,-0.84496 -2.40096,-1.28167 -2.90451,-0.97047 l -0.91554,0.56584 0.71353,-1.15451 c 0.39244,-0.63498 0.42943,-1.15451 0.0822,-1.15451 -0.34723,0 -3.56304,6.1875 -7.14625,13.75 -3.58321,7.5625 -10.02028,20.95 -14.30461,29.75 -4.28433,8.8 -8.11828,17.06885 -8.51991,18.37523 l -0.73022,2.37523 1.21086,-0.74835 1.21086,-0.74836 -1.62625,2.48198 -1.62626,2.48198 1.27253,1.05266 c 0.69989,0.57896 2.62253,1.25005 4.27253,1.49131 l 3,0.43866 -3,0.11802 c -1.65,0.0649 -3.81614,-0.50071 -4.81365,-1.25694 z m 40.34114,-68.26553 c 1.35988,-0.93726 3.0207,-2.39976 3.69071,-3.25 l 1.21819,-1.54589 0.0165,-6.5 c 0.0185,-7.28459 -0.81896,-9.35866 -3.57271,-8.84839 L 148.5,558.5 145.28605,565 c -1.76767,3.575 -3.48771,7.67281 -3.82232,9.10624 l -0.60839,2.60625 1.64376,1.64375 c 2.08214,2.08214 3.43803,2.0696 6.52839,-0.0603 z m 8.89566,-21.98687 0.0769,-5.19099 -1.08126,-0.66825 -1.08126,-0.66826 -2.91874,2.79633 c -3.5084,3.36127 -3.55035,3.67079 -0.66874,4.93502 l 2.25,0.98713 0.38652,5.5 0.38652,5.5 1.28663,-4 c 0.70764,-2.2 1.32121,-6.33594 1.36348,-9.19098 z m 83.9473,86.98243 4.37046,-3.90775 -0.68543,-5.94185 -0.68542,-5.94185 1.00894,-2.5 1.00894,-2.5 -0.53086,4.5 -0.53086,4.5 1.06214,2.75 c 0.58418,1.5125 1.41078,2.72677 1.83689,2.69839 0.42611,-0.0284 2.27471,-1.92234 4.10799,-4.20879 l 3.33325,-4.15717 -0.51322,-2.54121 C 255.37101,624.64355 254.8549,622.6 254.50638,621.5 l -0.63369,-2 1.59559,2.75 c 0.87758,1.5125 1.69372,2.75061 1.81366,2.75136 0.11993,7.5e-4 0.1753,-2.36175 0.12305,-5.25 l -0.095,-5.25136 0.39818,4.77616 0.39818,4.77616 1.0466,-0.64684 1.04661,-0.64683 -1.09977,2.05493 c -1.68849,3.15498 -1.38057,3.28465 2.44293,1.02873 1.94848,-1.14964 3.82348,-1.80946 4.16666,-1.46628 0.34319,0.34318 0.21147,0.62565 -0.29269,0.62771 -0.50417,0.002 -2.45465,0.94134 -4.33441,2.08731 l -3.41775,2.08357 1.41775,0.89738 1.41774,0.89737 -2.20344,0.0153 -2.20344,0.0153 -4.38823,4.4512 -4.38823,4.45119 2.09167,0.41263 2.09167,0.41262 -2.30902,0.13618 -2.30901,0.13618 0.61803,1 0.61803,1 h -2.42415 c -1.33329,0 -3.72235,0.94482 -5.30902,2.0996 -1.58667,1.15478 -0.91816,0.34112 1.48559,-1.80815 z m -52.53712,1.04188 c 0.36667,-0.36666 0.96667,-0.36666 1.33334,0 C 191.03333,644.7 190.73333,645 190,645 c -0.73333,0 -1.03333,-0.3 -0.66667,-0.66667 z m 60.47917,-1.01644 c 0.72187,-0.28887 1.58437,-0.25335 1.91667,0.0789 0.33229,0.33229 -0.25834,0.56864 -1.3125,0.52522 L 248.5,643.84211 Z m 3.9375,0.0208 c 0.6875,-0.27741 1.8125,-0.27741 2.5,0 0.6875,0.27741 0.125,0.50439 -1.25,0.50439 -1.375,0 -1.9375,-0.22698 -1.25,-0.50439 z M 54.5,642 c -0.83704,-1.35436 0.292427,-3 2.059017,-3 H 58 v 2 2 H 56.559017 C 55.766476,643 54.839919,642.55 54.5,642 Z m 204.41211,0.0755 1.41211,-0.89389 -2.41211,-0.45461 -2.41211,-0.45462 3.25,-0.13618 c 3.39437,-0.14223 4.39442,1.21069 1.66821,2.25683 -2.31178,0.88712 -3.13496,0.71357 -1.5061,-0.31753 z m -145.57878,-2.74215 c 0.36667,-0.36666 0.96667,-0.36666 1.33334,0 C 115.03333,639.7 114.73333,640 114,640 c -0.73333,0 -1.03333,-0.3 -0.66667,-0.66667 z m 32.42833,-2.04059 c 1.24391,-0.23919 3.04391,-0.23011 4,0.0202 0.95609,0.25029 -0.0617,0.446 -2.26166,0.4349 l -4,-0.0202 z m -5.35715,-2.44725 -0.71353,-1.15451 1.15451,0.71353 c 0.63498,0.39244 1.15451,0.91197 1.15451,1.15451 0,0.83414 -0.88305,0.43922 -1.59549,-0.71353 z M 248.73318,630.5 c 0.29861,-3.3 0.7058,-6.1875 0.90487,-6.41667 0.74014,-0.85203 0.19009,8.49165 -0.61321,10.41667 l -0.83458,2 z m -103.39985,1.83333 c 0.36667,-0.36666 0.96667,-0.36666 1.33334,0 C 147.03333,632.7 146.73333,633 146,633 c -0.73333,0 -1.03333,-0.3 -0.66667,-0.66667 z m -3,-1 c 0.36667,-0.36666 0.96667,-0.36666 1.33334,0 C 144.03333,631.7 143.73333,632 143,632 c -0.73333,0 -1.03333,-0.3 -0.66667,-0.66667 z m 121,-2 c 0.36667,-0.36666 0.96667,-0.36666 1.33334,0 C 265.03333,629.7 264.73333,630 264,630 c -0.73333,0 -1.03333,-0.3 -0.66667,-0.66667 z m 5.70444,-3.29269 3.46223,-2.95936 -1.5,-0.0711 -1.5,-0.0711 1.825,-1.06125 c 1.00375,-0.58369 2.098,-0.78827 2.43165,-0.45461 0.73616,0.73615 -5.73273,7.57668 -7.16504,7.57668 -0.55884,0 0.54194,-1.33171 2.44616,-2.95936 z m -21.59162,-4.12777 c -0.36954,-0.59793 -0.17109,-1.58793 0.44098,-2.2 L 249,618.6 v 2.2 c 0,2.41451 -0.51946,2.78655 -1.55385,1.11287 z m 12.97268,-1.55895 c 0.35749,-1.18035 1.03519,-4.10535 1.50601,-6.5 l 0.85603,-4.35392 0.10956,3.37244 0.10957,3.37245 1.65848,-1.37245 c 0.91216,-0.75484 2.47728,-3.17244 3.47804,-5.37244 1.00075,-2.2 1.82707,-3.325 1.83625,-2.5 0.0182,1.63665 -1.66773,4.37686 -6.83834,11.11446 L 259.76885,622.5 Z M 253.15789,616 c 0,-1.375 0.22698,-1.9375 0.50439,-1.25 0.27741,0.6875 0.27741,1.8125 0,2.5 -0.27741,0.6875 -0.50439,0.125 -0.50439,-1.25 z m -106.57864,-4 c 0.36447,-1.375 1.04456,-3.175 1.5113,-4 l 0.84863,-1.5 -0.005,1.5 c -0.003,0.825 -0.68286,2.625 -1.51131,4 l -1.50628,2.5 z M 255.98469,611.41667 255.96937,609.5 255,611 l -0.96937,1.5 -0.0153,-1.69098 c -0.0233,-2.5788 1.75439,-3.10998 2.504,-0.74818 0.36482,1.14943 0.39721,2.35597 0.072,2.68119 -0.32522,0.32522 -0.5982,-0.2712 -0.60662,-1.32536 z M 263,608 c 0,-0.73333 0.3,-1.03333 0.66667,-0.66667 0.36666,0.36667 0.36666,0.96667 0,1.33334 C 263.3,609.03333 263,608.73333 263,608 Z m -113.42679,-4 c 0.3678,-1.375 1.08577,-3.175 1.5955,-4 l 0.92679,-1.5 -0.66871,2.5 c -0.3678,1.375 -1.08577,3.175 -1.5955,4 l -0.92679,1.5 z m 115.05615,0.89748 c 1.2198,-2.24518 6.39557,-8.22768 6.72488,-7.77305 0.14962,0.20656 -0.0406,1.72557 -0.42279,3.37557 l -0.69482,3 -0.15896,-2 -0.15895,-2 -3.08,3.5 c -1.694,1.925 -2.68822,2.77887 -2.20936,1.89748 z M 110.55495,585.5 c 0.32181,-1.1 0.79605,-3.35 1.05386,-5 1.13297,-7.25102 2.77664,-13.5 3.5509,-13.5 0.46216,0 0.84029,0.48064 0.84029,1.06809 0,1.78221 5.92731,-3.02684 7.51509,-6.09727 C 125.73941,557.66945 125.38022,557.5308 121,561 c -2.2,1.74243 -4,2.93537 -4,2.65098 0,-0.96801 9.04829,-7.93603 9.59516,-7.38916 1.17738,1.17739 -3.692,8.57661 -7.9291,12.0486 l -4.4753,3.66717 -0.67268,4.7612 c -0.36998,2.61867 -1.31968,6.11121 -2.11046,7.76121 -0.79078,1.65 -1.17448,2.1 -0.85267,1 z M 83.632436,575.21429 c -0.267079,-0.43215 0.348325,-0.78572 1.367564,-0.78572 1.019239,0 1.634643,0.35357 1.367564,0.78572 C 86.100485,575.64643 85.485081,576 85,576 c -0.485081,0 -1.100485,-0.35357 -1.367564,-0.78571 z M 89,573.27111 c -0.825,-0.31405 -1.8375,-1.06602 -2.25,-1.67105 L 86,570.5 l -0.984687,1.5 -0.984687,1.5 -0.01531,-1.13337 C 84.006891,571.74328 83.1,570.99791 82,570.71025 c -1.1,-0.28766 -1.964474,-1.12764 -1.921053,-1.86663 l 0.07895,-1.34362 0.504386,1.25 c 0.277412,0.6875 1.704386,1.23405 3.171052,1.21456 l 2.666667,-0.0354 -2.367342,-1.31255 -2.367341,-1.31255 1.495486,-0.57387 c 0.822518,-0.31563 2.044001,-0.0465 2.714407,0.59798 l 1.218919,1.17186 -0.385379,-2 -0.385379,-2 -1.818352,0.15667 -1.818352,0.15666 1.064285,-1.06428 1.064285,-1.06429 1.415633,1.17487 c 0.778599,0.64618 2.102153,0.91143 2.941231,0.58945 1.932914,-0.74173 3.315215,1.3636 1.85442,2.8244 l -1.099214,1.09921 1.584308,1.75064 c 2.393741,2.64506 0.875369,4.47515 -2.611615,3.14778 z M 91.750467,571.75 c -0.22891,-0.6875 -1.264585,-1.4144 -2.301501,-1.61534 l -1.885302,-0.36534 1.340613,1.61534 c 1.5862,1.91126 3.440154,2.14923 2.84619,0.36534 z M 90.8125,566.0625 91.25,564.75 l -1.3125,0.4375 c -0.721875,0.24063 -1.509375,1.02813 -1.75,1.75 l -0.4375,1.3125 1.3125,-0.4375 c 0.721875,-0.24063 1.509375,-1.02813 1.75,-1.75 z m 22.38245,-3.5625 0.037,-3 0.46099,1.76903 c 0.25354,0.97297 0.23687,2.32297 -0.037,3 -0.27393,0.67703 -0.48137,-0.11903 -0.46099,-1.76903 z m 105.36557,-5.83907 C 219.24063,552.02762 220.96962,548 222.2785,548 c 0.52661,0 2.49504,-1.35 4.37428,-3 1.87925,-1.65 3.96365,-2.98632 4.63202,-2.96959 0.66836,0.0167 0.3152,0.52695 -0.7848,1.13385 -3.45959,1.90872 -7.45494,6.09964 -6.80993,7.14327 l 0.61895,1.00149 -1.01493,-0.62726 -1.01492,-0.62726 -1.57172,3.72275 c -0.86445,2.04751 -1.82794,4.39775 -2.14109,5.22275 -0.31316,0.825 -0.31579,-0.22758 -0.006,-2.33907 z M 107.69759,555.95159 107.18724,554 l 1.15638,-0.0316 c 0.63601,-0.0174 -0.0811,-1.1208 -1.59362,-2.45204 -4.28936,-3.77531 -3.22792,-5.06294 1.25,-1.51636 l 4,3.16806 v -1.80654 -1.80653 l 1.56406,2.233 c 0.86023,1.22815 1.31459,3.01578 1.00969,3.97251 l -0.55436,1.7395 -2.90573,0.20159 -2.90572,0.20158 z M 111,556 c 0,-0.55 -0.45,-1 -1,-1 -0.55,0 -1,0.45 -1,1 0,0.55 0.45,1 1,1 0.55,0 1,-0.45 1,-1 z m -9.25,-0.66228 c 0.6875,-0.27741 1.8125,-0.27741 2.5,0 0.6875,0.27741 0.125,0.50439 -1.25,0.50439 -1.375,0 -1.9375,-0.22698 -1.25,-0.50439 z M 98.361626,553.5 c -0.866036,-2.25685 0.347927,-4.51483 2.356994,-4.384 l 1.78138,0.116 -1.84892,0.47638 -1.848917,0.47637 0.460246,2.40762 c 0.513357,2.68546 -0.01448,3.2173 -0.900783,0.90763 z m 20.566064,-1.84703 c 1.74987,-2.11586 3.03834,-4.59086 2.86325,-5.5 L 121.47261,544.5 h -2.44531 -2.44531 l -0.67507,3.30075 c -0.3713,1.81541 -0.98882,3.61448 -1.37228,3.99795 -0.38347,0.38346 -0.39923,-0.65188 -0.035,-2.30075 l 0.66217,-2.99795 -1.06557,1.5 -1.06557,1.5 -0.0153,-1.12756 c -0.008,-0.62015 0.65969,-1.68775 1.48469,-2.37244 0.825,-0.68469 1.5,-1.82266 1.5,-2.52883 v -1.28393 l 2.25,0.55081 c 5.76302,1.41082 6.07592,3.92578 1.12305,9.02664 L 115.74611,555.5 Z m 130.58239,0.36334 C 248.77253,550.82294 249.70865,549 251.05902,549 c 1.2168,0 1.22469,2.70662 0.0101,3.45729 -0.512,0.31644 -1.21356,0.11799 -1.55902,-0.44098 z m 1.15659,-1.68298 C 250.3,549.96667 250,550.26667 250,551 c 0,0.73333 0.3,1.03333 0.66667,0.66667 0.36666,-0.36667 0.36666,-0.96667 0,-1.33334 z m -18.7434,-4.92222 c 2.82469,-2.37682 4.40266,-5.34861 2.07673,-3.91111 -0.55,0.33992 -1,0.38231 -1,0.0942 0,-0.28811 0.9,-1.0055 2,-1.5942 l 2,-1.07037 v 1.00039 c 0,1.36242 -5.9681,8.06998 -7.18032,8.06998 -0.53522,0 0.4114,-1.165 2.10359,-2.58889 z m -10.11778,-1.28304 c -0.23183,-1.57956 -0.0895,-3.71706 0.31621,-4.75 l 0.73773,-1.87807 0.0703,3.30902 0.0703,3.30901 1.09977,-0.67969 1.09977,-0.67969 -1.13496,2.12067 c -1.48371,2.77234 -1.75519,2.68206 -2.25909,-0.75125 z M 103.06339,543.95 c -0.0904,-2.21122 1.95656,-3.95 4.65018,-3.95 1.27246,0 3.19623,-0.55123 4.27504,-1.22496 l 1.96147,-1.22496 1.16901,1.16901 1.16901,1.16901 -2.03119,-0.53117 c -1.11716,-0.29214 -2.33354,-0.042 -2.70307,0.55595 C 111.18431,540.5108 109.54402,541 107.90876,541 h -2.97321 l -0.90439,2.25 -0.90439,2.25 z m 122.00022,-2.45 c 0,-0.55 0.66069,-1.87351 1.46819,-2.94113 0.80751,-1.06762 1.4682,-1.49113 1.4682,-0.94113 0,0.55 -0.66069,1.87351 -1.4682,2.94113 -0.8075,1.06762 -1.46819,1.49113 -1.46819,0.94113 z m -6.10945,-3.58565 c -0.61391,-1.1471 -0.92784,-2.274 -0.69762,-2.50422 0.23022,-0.23022 0.93203,0.70832 1.55958,2.08564 1.37807,3.02454 0.70709,3.35038 -0.86196,0.41858 z m 0.40967,-4.40861 c -0.31537,-0.82184 -0.97625,-1.24528 -1.46861,-0.94098 -0.49237,0.3043 -0.89522,-0.37328 -0.89522,-1.50574 0,-2.8366 0.67863,-2.58117 2.5,0.94098 0.85325,1.65 1.30068,3 0.9943,3 -0.30639,0 -0.8151,-0.67242 -1.13047,-1.49426 z m 8.93096,-3.31084 0.14494,-5.3051 -1.46987,-0.92959 c -0.80842,-0.51127 -1.11653,-0.93648 -0.68468,-0.9449 0.43185,-0.008 0.29453,-1.02781 -0.30516,-2.26531 l -1.09035,-2.25 1.40404,1.73446 c 0.77222,0.95395 1.69705,1.44145 2.05517,1.08333 0.35811,-0.35812 0.65112,-0.12612 0.65112,0.51554 0,2.21663 2.64273,1.15455 5.68909,-2.28637 l 3.05709,-3.45304 1.87691,1.4033 1.87691,1.40331 -2.12258,-0.53358 -2.12259,-0.53357 -2.19551,3.08331 -2.19551,3.08331 1.3181,0.0147 c 0.72495,0.008 0.19309,0.58088 -1.18191,1.27283 l -2.5,1.25808 -1.17507,4.47718 -1.17507,4.47717 z m 1.37188,-4.86157 C 229.3,524.96667 229,525.26667 229,526 c 0,0.73333 0.3,1.03333 0.66667,0.66667 0.36666,-0.36667 0.36666,-0.96667 0,-1.33334 z m 8.06105,-1.18301 c 1.22525,-0.35768 3.13775,-1.43342 4.25,-2.39053 1.11226,-0.95712 2.02228,-1.34637 2.02228,-0.86501 0,1.32328 -4.68637,4.1188 -6.71482,4.00554 L 235.5,524.80064 Z M 219.92431,519.25 217.5,516.5 l 2.75,2.42431 c 2.57029,2.26589 3.20859,3.07569 2.42431,3.07569 -0.17912,0 -1.41662,-1.2375 -2.75,-2.75 z M 230,521 c 0,-0.73333 0.3,-1.03333 0.66667,-0.66667 0.36666,0.36667 0.36666,0.96667 0,1.33334 C 230.3,522.03333 230,521.73333 230,521 Z m -2.17126,-3.90262 C 227.10833,515.94382 225.72715,515 224.75945,515 H 223 v -2.8 c 0,-2.86444 1.57462,-5.2239 3.45,-5.16959 0.5775,0.0167 0.2625,0.48908 -0.7,1.04969 -0.9625,0.5606 -1.75,1.93905 -1.75,3.06321 v 2.04393 l 1.79956,0.47059 c 1.8895,0.49412 4.69756,4.17839 3.83902,5.03693 -0.275,0.275 -1.08943,-0.44382 -1.80984,-1.59738 z M 224,517 c 0,-0.73333 0.3,-1.03333 0.66667,-0.66667 0.36666,0.36667 0.36666,0.96667 0,1.33334 C 224.3,518.03333 224,517.73333 224,517 Z m 14.38905,-4.6957 0.11095,-3.19571 0.91737,0.91308 0.91738,0.91308 -1.02833,2.28262 -1.02832,2.28263 z m -19.57655,1.01259 c 0.72187,-0.28887 1.58437,-0.25335 1.91667,0.0789 0.33229,0.33229 -0.25834,0.56864 -1.3125,0.52522 L 217.5,513.84211 Z m 10.36167,-2.91963 c 0.89617,-0.89617 2.10889,-1.46467 2.69493,-1.26333 0.58604,0.20134 -0.1472,0.93457 -1.62941,1.6294 l -2.69493,1.26334 z"
       id="path1" />
  </g>
</svg>
